<?xml version="1.0" encoding="utf-8"?>
<!-- Generator: Adobe Illustrator 26.2.1, SVG Export Plug-In . SVG Version: 6.00 Build 0)  -->
<svg version="1.1" id="a" xmlns="http://www.w3.org/2000/svg" xmlns:xlink="http://www.w3.org/1999/xlink" x="0px" y="0px"
	 width="230px" height="230px" viewBox="0 0 230 230" enable-background="new 0 0 230 230" xml:space="preserve">
<rect id="b" x="57.408" y="78.071" fill="#231815" width="115.185" height="73.857"/>
<g id="c">
	<path id="d" fill="#FFFFFF" d="M68.178,90.166c0.284-0.151,0.644-0.12,0.921-0.249c2.66-1.159,5.606-1.491,8.457-0.953
		c0.572,0.171,1.052,0.561,1.336,1.086c0.6,0.813,0.814,1.724,1.467,2.51c0.841,1.149,0.674,2.748-0.385,3.7
		c-1.188,1.268-2.63,2.588-2.49,4.317c0.047,0.658,0.182,1.307,0.4,1.93c0.372,1.23,0.605,2.497,0.694,3.779
		c0.039,0.306,0,0.653,0.014,0.942c0.182,2.108,0.492,4.203,0.929,6.274c0.172,0.745,0.133,1.524-0.113,2.248
		c-0.235,0.565-0.423,1.148-0.562,1.744c-0.206,0.682-0.362,1.378-0.468,2.082c-0.213,1.184-0.203,2.398,0.03,3.578
		c0.163,0.948,0.278,1.903,0.345,2.863c0.013,0.066,0.092,0.257,0.092,0.293c-0.033,0.776-0.163,1.545-0.387,2.289
		c-0.358,1.348,0.283,2.57,0.773,3.766c0.112,0.272,0.268,0.555,0.535,0.62c1.7,0.419,3.323,0.608,5.033,1.042
		c1.02,0.259,2.8,0.024,2.735-1.356c0.59-0.241,0.469-1.026,0.565-1.537c0.237-1.293,0.047-2.55,0.333-3.865
		c0.086-0.389,0.21-0.768,0.369-1.133c0.442-1.032,1.358-1.76,1.609-2.878c0.227-0.829,0.337-1.686,0.327-2.546
		c-0.027-0.697-0.007-1.394,0.06-2.088c0.072-1.111,0.659-2.126,1.587-2.742c0.448-0.249,0.932-0.425,1.434-0.524
		c1.059-0.344,2.2-0.106,3.3-0.44c0.261-0.095,0.458-0.311,0.528-0.58c0.105-0.821,0.065-1.654-0.118-2.461
		c0.032-1.105,0.33-2.186,0.871-3.151c0.08-0.167,0.086-0.436,0.17-0.63c0.533-0.973,1.207-1.862,2-2.638
		c0.1-0.116,0.32-0.157,0.428-0.322c0.805-1.228,1.142-2.459,1.977-3.648c0.723-0.858,1.652-1.519,2.7-1.919
		c0.239-0.076,0.484-0.13,0.733-0.163c0.119-0.035,0.263-0.181,0.4-0.217c0.281-0.064,0.556-0.155,0.82-0.272
		c1.3-0.651,2.086-2.147,3.629-2.351c0.129-0.017,0.27-0.159,0.4-0.22c1.96-0.942,4.007-0.281,6.053-0.056
		c0.438,0.116,0.829,0.368,1.115,0.72c1.057,1.071,2.039,2.1,3.1,3.169c0.672,0.682,1.613,0.929,2.322,1.572
		c0.462,0.435,0.845,0.948,1.132,1.515c0.255,0.438,0.43,0.918,0.517,1.418c0.056,1.34,0.314,2.663,0.766,3.926
		c0.487,0.895,0.776,1.884,0.848,2.9c-0.01,0.9,0.076,2.13,1.126,2.268c1.011,0.271,2.091,0.062,2.927-0.568
		c1.338-1.411,1.093-3.485,1.228-5.4c0.097-0.556,0.345-1.074,0.715-1.5c0.7-0.939,1.671-1.452,2.4-2.335
		c1.176-1.434,1.5-3.249,3.049-4.337c1.115-0.835,2.387-1.437,3.739-1.772c0.472-0.033,0.946-0.021,1.416,0.034
		c0.989,0.027,1.975-0.115,2.916-0.42c0.607-0.248,1.261-0.362,1.867-0.6c0.726-0.219,1.499-0.232,2.233-0.04
		c0.797,0.259,1.536,0.673,2.173,1.218c0.581,0.419,1.12,0.894,1.61,1.417c0.752,0.716,1.059,1.742,1.866,2.4
		c0.69,0.504,1.331,1.073,1.912,1.7c0.511,0.634,0.979,1.302,1.4,2c0.297,0.53,0.526,1.095,0.684,1.682
		c0.253,0.685,0.325,1.423,0.21,2.144c-0.194,0.9,0,1.728-0.239,2.594c-0.097,0.438-0.058,0.894,0.11,1.31
		c0.419,0.857,0.62,1.805,0.585,2.759c-0.031,0.885-0.189,1.76-0.468,2.6c-0.127,0.277-0.058,0.695-0.188,1
		c-0.126,0.345-0.392,0.62-0.732,0.758c-0.826,0.29-1.687,0.47-2.56,0.538c-0.981,0.064-1.957,0.074-2.941,0.119
		c-0.698,0.032-1.397-0.042-2.073-0.22c-0.523-0.138-0.976-0.4-1.532-0.521c-1.477-0.223-2.975-0.267-4.462-0.13
		c-0.878,0.124-1.743,0.329-2.583,0.612c-1.5,0.31-3.186-1.112-4.279,0.334c-0.386,0.607-0.433,1.37-0.122,2.019
		c0.276,0.667,0.785,1.224,1.121,1.86c0.777,1.466,1.091,3.077,2.072,4.444c1.368,1.9,3.424,2.713,5.6,3.4
		c0.21,0.066,0.356-0.138,0.588-0.061c0.339,0.111,0.716-0.114,1.113-0.175c0.225-0.036,0.446-0.097,0.658-0.18
		c1.451-0.566,2.24-1.865,3.184-3.046c0.179-0.223,0.3-0.562,0.549-0.677c1.049-0.477,1.609-1.434,2.563-2
		c0.484-0.27,1.045-0.366,1.591-0.274c0.52,0.11,0.979,0.415,1.281,0.853c0.44,0.635,0.797,1.323,1.062,2.049
		c0.356,0.798,0.379,1.704,0.064,2.519c-0.125,0.293-0.43,0.59-0.552,0.9c-0.873,2.13-2.353,3.956-4.256,5.251
		c-0.909,0.601-1.873,1.115-2.879,1.535c-0.689,0.414-1.354,0.867-1.991,1.356c-0.479,0.343-1.069,0.493-1.654,0.42
		c-0.186-0.033-0.366,0.231-0.56,0.218c-0.1-0.007-0.195-0.226-0.287-0.222c-2.416,0.107-4.96,0.248-7.079-1.386
		c-0.253-0.195-0.678-0.291-0.951-0.5c-0.72-0.496-1.367-1.091-1.921-1.767c-0.51-0.531-0.966-1.111-1.36-1.733
		c-0.41-0.874-1.2-1.411-1.559-2.314c-0.153-0.385-0.651-0.607-0.855-0.992c-0.436-0.822-0.4-1.8-0.863-2.6
		c-0.662-1.145-1.15-2.247-1.892-3.384c-0.1-0.198-0.155-0.415-0.161-0.637c-0.011-0.1-0.2-0.178-0.234-0.294
		c-0.425-1.653,0.022-3.286-0.435-4.92c-0.075-0.237-0.284-0.407-0.531-0.433c-1.7,0.148-3.358,0.587-5.038,0.626
		c-1.241,0.035-2.483-0.056-3.706-0.27c-0.852-0.141-1.725-0.071-2.543,0.206c-0.892,0.284-1.806,0.346-2.652,0.674
		c-0.773,0.239-1.59,0.305-2.391,0.191c-0.765,0.03-1.529-0.068-2.262-0.29c-1.722-0.681-3.596-0.884-5.424-0.587
		c-0.19,0.028-0.325,0.266-0.353,0.448c-0.063,1.043-0.023,2.091,0.121,3.126c0.006,0.35,0.064,0.698,0.172,1.031
		c0.315,0.88,0.954,1.619,1.214,2.505c0.277,0.943,0.729,1.782,1.058,2.719c0.205,0.584,0.839,0.8,1.331,1.087
		c1.683,0.872,3.616,1.132,5.47,0.737c0.643-0.103,1.267-0.297,1.855-0.576c0.592-0.22,1.099-0.624,1.445-1.152
		c0.673-1.531,1.661-2.903,2.9-4.027c0.59-0.447,1.431-0.332,1.879,0.259c0.022,0.029,0.043,0.059,0.062,0.089
		c0.252,0.411,0.435,0.86,0.542,1.33c0.133,0.426,0.236,0.86,0.309,1.3c0.026,0.152,0.216,0.4,0.262,0.592
		c0.139,0.362,0.232,0.74,0.274,1.126c-0.125,2.51-0.066,5.32-2.435,7c-0.208,0.143-0.429,0.267-0.661,0.368
		c-0.332,0.153-0.772,0.1-1.1,0.268c-1.674,0.871-3.566,0.8-5.2,1.574c-0.706,0.215-1.426,0.382-2.155,0.5
		c-1.043,0.204-2.124,0.071-3.086-0.381c-1.759-0.585-3.522-0.98-5.234-1.666c-0.315-0.133-0.611-0.308-0.88-0.519
		c-0.086-0.064-0.285,0.021-0.338-0.043c-1.189-1.239-2.039-2.764-2.467-4.427c-0.042-0.213-0.31-0.491-0.336-0.687
		c-0.058-0.737-0.34-1.439-0.809-2.01c-1.512-1.6-1.456-3.769-1.741-5.749c-0.1-0.7,0.153-1.5-0.386-2.088
		c-0.079-0.048-0.177-0.048-0.256,0c-0.328,0.326-0.519,0.766-0.533,1.228c-0.089,0.438-0.051,0.885-0.174,1.31
		c-0.187,0.646-0.131,1.353-0.57,1.882c-0.529,0.544-0.915,1.211-1.122,1.941c-0.7,3.287,0.063,6.544-1.1,9.638
		c-0.293,0.553-0.741,1.008-1.289,1.31c-0.345,0.239-0.727,0.421-1.13,0.538c-1.045,0.177-2.118,0.087-3.119-0.263
		c-1.215-0.227-2.461-0.231-3.677-0.013c-1.387,0.244-2.787,0.409-4.193,0.494c-1.742,0.022-3.421-0.682-5.209-0.359
		c-1.315,0.357-2.651,0.633-4,0.825c-1.096-0.07-2.128-0.539-2.9-1.32c-0.99-0.655-1.35-1.938-0.844-3.012
		c0.808-1.566,2.014-2.971,2.049-4.724c-0.073-1.35-0.28-2.69-0.618-4c-0.24-1.31,0.051-2.559-0.131-3.885
		c-0.129-0.943-0.263-1.815-0.43-2.762c-0.464-2.642,0.544-4.953,1.174-7.509c0.311-0.981,0.256-2.042-0.155-2.986
		c-0.127-0.345-0.18-0.713-0.155-1.08c-0.156-1.8,0.338-3.669-0.41-5.382c-0.674-1.471-1.06-3.057-1.137-4.673
		c0-0.042-0.079-0.226-0.1-0.3c-0.089-0.343-0.085-0.704,0.012-1.045c0.077-0.496-0.07-1-0.4-1.378
		c-0.694-1.071-2.062-1.441-2.551-2.619c-0.36-0.83-0.355-1.773,0.013-2.6C66.177,91.753,67.061,90.785,68.178,90.166
		 M109.76,106.581c-0.618,0.935-1.111,1.948-1.465,3.012c-0.539,0.772-1.123,1.511-1.749,2.215c-0.392,0.6-0.422,1.618,0.361,1.721
		c1.235,0.162,2.467-0.2,3.693-0.156c1.889,0.138,3.765,0.412,5.615,0.818c1.155,0.179,2.325-0.213,3.138-1.052
		c0.511-0.522,0.216-1.41-0.08-2.081c-0.33-0.741-0.957-1.352-1.221-2.131c-0.31-0.917-0.28-1.925-0.662-2.813
		c-0.199-0.38-0.521-0.68-0.913-0.854c-0.456-0.336-0.936-0.637-1.437-0.9c-0.514-0.264-1.103-0.342-1.668-0.221
		c-0.618,0.365-1.207,0.775-1.765,1.227C110.931,105.671,110.308,106.081,109.76,106.581 M145.16,105.928
		c-0.576,0.222-1.07,0.617-1.413,1.13c-0.093,0.119-0.085,0.331-0.154,0.434c-0.771,1.175-1.69,2.055-2.433,3.216
		c-0.374,0.585-0.725,1.562-0.033,1.925c1.192,0.491,2.462,0.766,3.751,0.814c2.495,0.188,5,0.183,7.494-0.015
		c0.495,0.043,0.931-0.324,0.974-0.819c0.012-0.144-0.01-0.29-0.066-0.424c-0.38-1.008-0.618-2.064-0.709-3.137
		c-0.17-0.972-1.267-1.228-1.951-1.868c-0.573-0.641-1.279-1.148-2.07-1.485c-0.734-0.229-1.52,0.2-2.358,0.083
		c-0.349-0.023-0.699,0.027-1.028,0.146"/>
</g>
</svg>
